<svg xmlns="http://www.w3.org/2000/svg" version="1.1" style="display: block;" viewBox="0 0 2047 2047" width="1024" height="1024" preserveAspectRatio="none">
<path transform="translate(0,0)" fill="rgb(7,49,90)" d="M 0 0 L 2048 0 L 2048 2048 L 0 2048 L 0 0 z"/>
<path transform="translate(0,0)" fill="rgb(254,254,253)" d="M 983.775 805.956 L 985.172 806.139 C 986.56 808.234 986.087 866.074 986.097 873.537 C 958.803 886.762 929.355 897.938 901.976 911.513 C 886.32 919.276 872.977 927.87 867.161 945.717 C 863.419 957.417 864.65 970.141 870.565 980.907 C 881.769 1001.32 900.557 1004.04 921.46 1001.13 C 934.405 999.323 947.583 997.759 960.564 996.11 L 1086.65 980.872 C 1119.31 976.775 1164.87 967.019 1195.68 976.36 C 1222.08 984.21 1244.15 1002.45 1256.83 1026.9 C 1270.22 1051.97 1272.95 1081.38 1264.4 1108.49 C 1246.43 1165.56 1190.04 1189.92 1142.37 1217.74 C 1125.19 1227.76 1104.87 1240.61 1087.87 1249.55 C 1087.47 1225.76 1087.99 1202.26 1087.38 1178.32 C 1114.29 1161.92 1142.11 1146.74 1169.3 1130.82 C 1177.67 1125.93 1186.22 1121.32 1193.4 1114.71 C 1199.75 1108.93 1204.56 1101.68 1207.43 1093.59 C 1211.64 1081.19 1210.77 1067.63 1205.03 1055.86 C 1188.66 1022.45 1143.06 1036.05 1113.36 1040.04 C 1068.5 1046.06 1023.61 1051.8 978.678 1057.28 C 945.147 1061.47 908.688 1070.28 876.239 1059.55 C 821.217 1041.36 791.389 982.584 810.671 927.694 C 829.386 874.417 871.117 857.184 918.41 835.969 C 940.365 826.332 962.156 816.326 983.775 805.956 z"/>
<path transform="translate(0,0)" fill="rgb(254,254,253)" d="M 1067.75 1067.6 C 1068.81 1070.75 1068.06 1124.7 1068.06 1132.9 L 1068.05 1346.2 C 1046.98 1346.4 1025.9 1346.4 1004.83 1346.21 L 1004.82 1135.52 C 980.717 1173.99 955.736 1212.42 931.98 1250.96 C 911.131 1283.54 891.213 1316.5 869.969 1348.87 C 855.532 1337.94 833.943 1324.09 818.744 1314.2 C 845.625 1273.69 872.447 1229.44 898.209 1187.9 C 919.837 1153.02 943.446 1116.41 964.349 1081.42 C 993.869 1077.39 1039.12 1069.59 1067.75 1067.6 z"/>
<path transform="translate(0,0)" fill="rgb(254,254,253)" d="M 1201.52 698.46 L 1253.52 734.467 C 1206.28 808.25 1159.55 882.351 1113.32 956.766 C 1079.02 959.539 1039.58 965.309 1004.72 969.131 C 1006.07 918.987 1004.87 863.029 1004.88 812.5 L 1004.84 701.054 L 1068.27 701.056 C 1066.99 770.216 1069.94 843.152 1067.93 911.593 C 1084.02 888.842 1102.97 856.551 1118.1 832.31 C 1146.13 787.836 1173.94 743.219 1201.52 698.46 z"/>
</svg>