<svg xmlns="http://www.w3.org/2000/svg" viewBox="685 579 703.5 889" width="1024" height="1024" preserveAspectRatio="none">
  <path fill="rgb(7,49,90)" d="M0 0h2048v2048H0z" transform="translate(0 0)"/>
  <path fill="rgb(254,254,253)" d="M983.775 805.956l1.397.183c1.388 2.095.915 59.935.925 67.398-27.294 13.225-56.742 24.401-84.121 37.976-15.656 7.763-29 16.357-34.816 34.204-3.742 11.7-2.511 24.424 3.404 35.19 11.204 20.413 29.992 23.133 50.895 20.224 12.945-1.807 26.123-3.371 39.104-5.02l126.086-15.238c32.66-4.097 78.22-13.853 109.03-4.512 26.4 7.85 48.47 26.09 61.15 50.54 13.39 25.07 16.12 54.48 7.57 81.59-17.97 57.07-74.36 81.43-122.03 109.27-17.18 10.02-37.5 22.87-54.5 31.81-.4-23.79.12-47.29-.49-71.23 26.91-16.4 54.73-31.58 81.92-47.5 8.37-4.89 16.92-9.5 24.1-16.11 6.35-5.78 11.16-13.03 14.03-21.12 4.21-12.4 3.34-25.96-2.4-37.73-16.37-33.41-61.97-19.81-91.67-15.82-44.86 6.02-89.75 11.76-134.682 17.24-33.531 4.19-69.99 13-102.439 2.27-55.022-18.19-84.85-76.966-65.568-131.856 18.715-53.277 60.446-70.51 107.739-91.725 21.955-9.637 43.746-19.643 65.365-30.013z" transform="translate(0 0)"/>
  <path fill="rgb(254,254,253)" d="M1067.75 1067.6c1.06 3.15.31 57.1.31 65.3l-.01 213.3c-21.07.2-42.15.2-63.22.01l-.01-210.69c-24.103 38.47-49.084 76.9-72.84 115.44-20.849 32.58-40.767 65.54-62.011 97.91-14.437-10.93-36.026-24.78-51.225-34.67 26.881-40.51 53.703-84.76 79.465-126.3 21.628-34.88 45.237-71.49 66.14-106.48 29.52-4.03 74.77-11.83 103.4-13.8z" transform="translate(0 0)"/>
  <path fill="rgb(254,254,253)" d="M1201.52 698.46l52 36.007c-47.24 73.783-93.97 147.884-140.2 222.299-34.3 2.773-73.74 8.543-108.6 12.365 1.35-50.144.15-106.102.16-156.631l-.04-111.446 63.43.002c-1.28 69.16 1.67 142.096-.34 210.537 16.09-22.751 35.04-55.042 50.17-79.283 28.03-44.474 55.84-89.091 83.42-133.85z" transform="translate(0 0)"/>
</svg>
